<?xml version="1.0" encoding="UTF-8"?>
<!-- Generated by Pixelmator Pro 3.6.18 -->
<svg width="40" height="40" viewBox="0 0 40 40" xmlns="http://www.w3.org/2000/svg">
    <clipPath id="clipPath1">
        <path d="M 10 10 L 30 10 L 30 30 L 10 30 Z"/>
    </clipPath>
    <g id="Associer" clip-path="url(#clipPath1)">
        <path id="Trac" fill="#4285f4" stroke="none" d="M 29.6 20.227301 C 29.6 19.5182 29.5364 18.836399 29.4182 18.181801 L 20 18.181801 L 20 22.049999 L 25.3818 22.049999 C 25.15 23.299999 24.445499 24.3591 23.3864 25.068199 L 23.3864 27.577299 L 26.6182 27.577299 C 28.5091 25.836399 29.6 23.272699 29.6 20.227301 Z"/>
        <path id="path1" fill="#34a853" stroke="none" d="M 20 30 C 22.700001 30 24.9636 29.1045 26.618099 27.577299 L 23.386299 25.068199 C 22.4909 25.6682 21.3454 26.022699 20 26.022699 C 17.395399 26.022699 15.1909 24.263599 14.4045 21.9 L 11.0636 21.9 L 11.0636 24.4909 C 12.7091 27.7591 16.0909 30 20 30 Z"/>
        <path id="path2" fill="#fbbc04" stroke="none" d="M 14.4045 21.9 C 14.2045 21.299999 14.0909 20.6591 14.0909 20 C 14.0909 19.3409 14.2045 18.700001 14.4045 18.1 L 14.4045 15.5091 L 11.0636 15.5091 C 10.3864 16.8591 10 18.3864 10 20 C 10 21.6136 10.3864 23.1409 11.0636 24.4909 L 14.4045 21.9 Z"/>
        <path id="path3" fill="#e94235" stroke="none" d="M 20 13.977299 C 21.4681 13.977299 22.786301 14.4818 23.822701 15.4727 L 26.690901 12.6045 C 24.959101 10.9909 22.6954 10 20 10 C 16.0909 10 12.7091 12.2409 11.0636 15.5091 L 14.4045 18.1 C 15.1909 15.736401 17.395399 13.977299 20 13.977299 Z"/>
    </g>
</svg>
